<?xml version="1.0" encoding="UTF-8" standalone="no"?>
<svg width="556px" height="205px" viewBox="0 0 556 205" version="1.1" xmlns="http://www.w3.org/2000/svg" xmlns:xlink="http://www.w3.org/1999/xlink" xmlns:sketch="http://www.bohemiancoding.com/sketch/ns">
    <!-- Generator: Sketch 3.5.1 (25234) - http://www.bohemiancoding.com/sketch -->
    <title>001</title>
    <desc>Created with Sketch.</desc>
    <defs></defs>
    <g id="Surah-Name" stroke="none" stroke-width="1" fill="none" fill-rule="evenodd" sketch:type="MSPage">
        <g id="001" sketch:type="MSLayerGroup" fill="#635E49">
            <g id="Layer_1" sketch:type="MSShapeGroup">
                <g id="Group">
                    <path d="M313.6,85.4 C316,119.2 317.2,138.4 317.2,143.2 C317.2,148.2 317,152.8 316.5,156.9 C316.3,159.5 316,161.5 316.3,162.4 C316.5,163.1 316.8,163.1 317.5,161.9 C318,160.9 318.5,159.7 319.4,158.1 C322.8,149.5 324.4,139.4 324.4,128.1 C324.4,124.3 323.4,107.7 321.3,78.2 C319.1,48.4 317.9,33.6 317.9,33.1 C317.9,31.9 318.1,31.4 318.6,32.1 C322.9,36.9 324.8,38.1 324.8,35.9 C324.8,35.4 324.8,34.2 324.3,33 C323.8,31.1 322.1,26.3 319,18.4 C316.1,11 314.4,6.4 313.7,4.7 C313.2,4 313,3.5 312.5,3.5 C312.3,3.5 312,4 311.8,4.7 C308.9,10.9 307.7,15 307.7,16.7 C309.1,19.8 309.9,23.7 309.9,28.5 C310,32.6 311.2,51.5 313.6,85.4 L313.6,85.4 Z" id="Shape"></path>
                    <path d="M275,158.1 C280.8,158.1 285.8,154.5 290.1,147.8 C295.1,139.6 297.8,128.6 297.8,114.4 C297.8,109.4 296.8,94.2 294.9,69 C293,43.6 292,30.6 292,30.4 C292,29.2 292.2,29 292.7,29.4 C296.8,34.2 298.9,35.4 298.9,33.2 C298.9,32.7 298.7,31.5 298.4,30.1 C297.7,28.4 296,23.6 293.1,15.7 C290.2,8.3 288.3,3.7 287.6,2 C287.1,1 286.9,0.8 286.6,0.8 C286.1,0.8 285.9,1 285.6,1.8 C283,8.3 281.5,12.4 281.5,14 C282.9,17.1 283.7,21 283.7,25.5 C283.7,30.8 284.7,47.8 286.8,76.6 C289,105.4 290.2,122 290.2,126 C290.2,132.7 289.5,136.8 288.3,137.8 C284,141.4 279.4,143.3 274.9,143.3 L274.9,143.3 C267.7,143.3 262.7,143.1 260,142.3 C264.1,137 266.2,129.6 266.2,120.2 C266.2,116.4 265.5,112.5 264.3,108.9 C262.6,104.3 260,101.9 256.9,101.9 C253.5,101.9 249.7,105.3 244.9,111.5 C239.9,118.2 237.2,125.2 237.2,131.9 C237.2,136.7 237.9,140.5 239.6,143.4 C236.2,144.8 232.9,145.8 229.3,145.8 C225.7,145.8 223.1,145.1 221.1,144.1 C218,141.9 215.6,137.4 214.4,130.7 C214.2,128.3 213.4,114.4 213,89.2 C212.3,62.3 211.3,44.3 210.4,35.2 C208.7,20.8 206.6,10.5 203.4,4.5 C202.9,3.5 202.4,2.8 202.2,2.8 C201.7,2.8 201.5,3.5 201,4.7 C199.1,9.5 198.1,12.9 198.1,15.3 C200.7,24.4 202.7,33.8 203.9,43.9 C204.4,50.1 205.1,66.9 206.1,94.3 C206.8,119.7 207.8,134.9 208.7,140.1 C210.1,148.5 212.8,154 217.1,157.1 C220,159.3 224.1,160.5 229.3,160.5 C234.6,160.5 240.8,157.9 247.8,152.8 C253.4,156.4 262.5,158.1 275,158.1 L275,158.1 L275,158.1 Z M250,138.6 C248.1,137.9 246.2,136.7 244.5,134.8 C242.8,133.1 241.6,131.4 241.1,130 C242.3,127.4 244.2,124.5 247.3,121.1 C250.4,117.7 252.8,116.1 254.3,116.1 C255.5,116.1 256.9,118 258.6,121.9 C260,125.3 260.8,128.1 260.8,130.1 C258.9,133.1 255.3,136 250,138.6 L250,138.6 Z" id="Shape"></path>
                    <path d="M191,131.9 C192.9,131.9 194.4,131.2 194.8,129.7 L198.4,119.6 C199.1,118.2 197.7,117.4 194.8,117.4 C186.4,117.4 174.6,116.4 159.5,114.3 C146.1,112.4 135,110.7 126.6,108.8 L126,108.8 C129.6,105.9 133.1,102.7 136.4,99 C140,95.2 144.8,87.5 150.8,76.4 C155.4,68 159,63.9 161.6,63.7 C163,63.9 164.7,65.1 166.2,67.8 C167.9,70.4 168.6,73.8 168.6,77.4 C168.6,80.5 169.1,82 170,82 C170.7,82 171.4,80.8 171.9,78.2 C172.6,74.4 173.1,70.5 173.1,66.9 C173.1,61.1 171.9,56.8 170,53.2 C168.1,50.6 166.4,49.1 164.5,49.1 C161.9,49.1 158,53.4 152.5,62.1 C145.5,73.4 140.5,80.6 137.1,83.9 C131.3,89.7 125.6,94.2 119.6,98.1 C116.7,100 112.6,102.2 107.6,104.6 C104.2,106.3 102.1,107.7 101.4,108.9 C99.5,113 98.3,116.3 97.8,118.5 C97.1,119.9 98,120.7 100.4,120.7 C102.1,120.7 109,121.7 121,123.1 C138.5,125.5 148.1,126.9 149.6,127.2 C141.9,131 134,134.9 126.1,138.5 C114.2,143.7 103.5,146.4 93.7,146.4 L93.7,146.2 C89.1,146.2 85.5,145.5 82.7,144.3 C79.8,142.9 77.2,140.2 74.5,136.6 C72.6,133.5 70.9,130.4 69,127.2 C66.8,124.1 64.2,122.4 61.6,122.4 C58.2,122.4 54.2,124.3 50.1,128.6 C45.8,132.9 42.2,138 39.3,143.7 C35.9,150.9 32.6,158.1 29.5,165.3 C26.1,171.3 22.8,174.4 18.9,174.4 C9.3,174.4 4.7,164.1 4.7,143.7 C4.7,139.4 4.9,134.1 5.7,127.9 L5.7,127.6 C8.5,127.2 10.5,123.6 11.7,116.8 C11.9,116.6 11.9,116.3 11.7,116.1 C11.7,115.9 11.7,115.9 11.5,116.1 C11.5,116.1 11.3,116.3 11.3,116.6 C9.6,119.5 8.2,121.2 6.7,121.2 C4.5,121.2 3.6,119 3.6,115.2 C3.6,112.1 4.8,107 7.2,99.6 C7.7,97.9 7.9,97 7.9,96.7 C7.7,96.7 7.2,97.7 6.2,99.3 C2.4,106.3 0.7,113.2 0.7,119.7 C0.7,124 1.7,126.6 3.8,127.4 C1.9,133.1 1,141 1,150.5 C1,158.4 2.4,166.1 5.8,173.5 C9.6,181.9 14.2,186.2 19.5,186.2 C23.1,186.2 26.7,183.8 29.8,179 C32,175.6 34.4,170.6 37,163.6 C39.9,156.6 41.8,152.3 42.8,150.6 C49,141.2 54.8,136.7 60.3,136.7 C62,136.7 63.7,137.9 65.6,140.8 C67.5,144.2 69.4,147.5 71.4,150.6 C74.5,155.4 78.4,158.5 83.2,160 C85.3,160.5 88.8,160.9 93.8,161 L93.8,161 L93.9,161 L94.1,161 L94.1,161 C101.2,161 109.3,159.1 118.3,155.7 C123.1,153.8 131.3,150.2 142.3,144.7 C152.4,139.7 160.3,136.1 165.8,134.4 C170.4,132.6 178.8,131.9 191,131.9 L191,131.9 Z" id="Shape"></path>
                    <path d="M249.6,75 C249.4,75 248.9,75.2 248.6,75.7 L244,85.3 C243.8,85.8 243.8,86 244,86.3 C247.8,88.7 251.7,91.3 255.3,94.2 C255.8,94.4 256,94.2 256.5,93.5 C259.9,88.2 261.5,84.9 261.5,83.2 C261.5,82.7 259.6,81.3 255.7,78.6 C252.2,76.2 250,75 249.6,75 L249.6,75 Z" id="Shape"></path>
                    <path d="M154.3,34.9 C154.8,35.1 155.3,34.9 155.5,34.2 C156.9,32 158.1,29.4 159.6,26.5 C163.7,29.1 167.3,31.5 170.4,33.9 C170.9,34.1 171.4,34.1 171.8,33.4 C174.9,28.1 176.6,24.5 176.6,22.8 C176.6,22.3 174.7,20.9 171.1,18.5 C167.3,15.9 165.3,14.7 164.9,14.7 C164.4,14.7 164.2,14.9 163.9,15.4 L160.1,23.3 C159.1,22.3 157,20.7 153.9,18.7 C150.8,16.5 149.1,15.3 148.6,15.3 C148.4,15.3 147.9,15.8 147.6,16.3 L143,25.9 C142.8,26.4 142.8,26.6 143,26.9 C146.8,29.4 150.7,32.1 154.3,34.9 L154.3,34.9 Z" id="Shape"></path>
                    <path d="M44.1,89.9 L39.5,99.5 C39.3,100 39.3,100.2 39.5,100.5 C43.3,102.9 47.2,105.5 50.8,108.4 C51.3,108.6 51.8,108.4 52,107.7 C53.4,105.5 54.6,102.9 56.1,100 C60.2,102.6 63.8,105 66.9,107.4 C67.4,107.6 67.9,107.6 68.3,106.9 C71.4,101.6 73.1,98 73.1,96.3 C73.1,95.8 71.2,94.4 67.6,92 C63.8,89.4 61.8,88.2 61.4,88.2 C60.9,88.2 60.7,88.4 60.4,88.9 L56.6,96.8 C55.6,95.8 53.5,94.2 50.4,92.2 C47.3,90 45.6,88.8 45.1,88.8 C44.8,88.9 44.4,89.4 44.1,89.9 L44.1,89.9 Z" id="Shape"></path>
                    <path d="M244,33.3 C247.4,33.3 250,31.6 252.4,28.7 C253.1,27.7 253.6,25.1 254.1,21 C254.3,17.4 251.9,13.6 246.9,10 C247.6,7.6 248.6,5.2 249.5,3 C249.5,2.8 249.7,2.5 249.7,2.5 C249.7,2 249.2,1.8 248.7,1.8 C248,1.8 247,2.3 246.3,3.5 C242.9,10 240.5,16.9 239.3,24.6 C239.1,25.6 239.1,26.5 239.1,27.2 C239.2,31.1 240.7,33.3 244,33.3 L244,33.3 Z M244.3,16.5 C249.3,19.4 251.7,21.5 251.7,22.7 C251.2,23.7 250,24.6 248.3,25.3 C246.6,26.3 245.2,26.7 244,26.7 C242.6,26.7 241.8,25.7 241.8,24.3 C241.9,22 242.6,19.4 244.3,16.5 L244.3,16.5 Z" id="Shape"></path>
                    <path d="M189.6,148 C190.1,147.3 190.1,146.8 189.8,146.8 C189.6,146.6 189.3,146.8 188.4,147 C173.3,152.5 158.9,157.8 145.2,162.6 C144,165 143.3,167.2 142.8,169.3 C159.8,162.1 174.7,156.3 187.7,151.8 C188.1,151.4 188.8,150.1 189.6,148 L189.6,148 Z" id="Shape"></path>
                    <path d="M124.3,44.1 C124.5,43.4 124.5,42.9 124.5,42.9 C124.3,42.7 123.8,42.9 123.1,43.1 C102.9,50.5 83.7,57.7 65.3,64.5 C64.1,66.9 63.4,69.1 62.9,71.2 C85.5,61.8 105.4,54.2 122.2,47.9 C122.6,47.4 123.3,46.2 124.3,44.1 L124.3,44.1 Z" id="Shape"></path>
                    <path d="M290.4,172.7 C288.2,172.7 286.3,174.9 284.4,179.2 C282.7,185.4 281.5,190.2 281,193.4 C281,193.9 280.8,194.1 280.8,194.4 L280.6,194.4 C280.6,194.2 280.6,193.9 280.4,193.4 C279.7,188.1 278,183.8 275.8,180.7 C273.6,177.3 271.2,175.9 268.4,175.9 C268.2,175.9 267.4,176.6 266.5,178.5 C265.3,180.4 264.8,181.6 264.8,181.9 C264.8,182.6 265.3,183.6 266.7,184.8 C268.1,186 269.1,186.7 270.1,186.7 C270.8,186.7 271.1,186.5 271.3,186.2 C271.5,185.7 271.8,185.7 272.3,185.7 C273.3,185.7 274.5,187.9 276.4,192.7 C278.3,197.3 279.3,200.4 279,202.1 C279.2,203.1 279.2,203.8 279.7,203.8 C280.2,203.8 280.7,203.1 281.4,202.1 C282.1,200.4 283.1,197.5 283.8,193.5 C285.5,184.4 287.2,179.8 289.1,179.8 C290.1,179.8 291,180.3 291.7,181.2 C292.7,182.2 293.1,182.9 293.4,182.9 C293.9,182.9 294.4,182.2 294.8,180.7 C295.3,179.7 295.3,178.8 295.3,178.3 C295.3,177.3 294.8,176.4 293.9,174.9 C292.8,173.4 291.6,172.7 290.4,172.7 L290.4,172.7 Z" id="Shape"></path>
                    <path d="M80.6,182.3 C80.4,182.1 80.1,182.3 79.2,182.5 C64.1,188 49.7,193.3 36,198.1 C34.8,200.5 34.1,202.7 33.6,204.8 C50.6,197.6 65.5,191.8 78.5,187.3 C79,186.8 79.7,185.6 80.4,183.5 C80.8,182.8 80.8,182.3 80.6,182.3 L80.6,182.3 Z" id="Shape"></path>
                    <path d="M131,196.7 C125.2,198.4 120.2,199.3 115.2,199.3 C110.2,199.3 107.5,198.1 107.5,195.7 C107.5,194.7 108,193.3 108.9,191.9 C111.5,189.3 114.2,186.6 116.8,184 C120.4,179.9 122.1,177 122.1,174.9 C122.1,172 119.5,170.8 113.7,170.8 C111.1,170.8 109.1,171.3 107.9,172.2 C106.9,172.9 106,174.6 105,177 C104.8,177.5 104.8,177.7 104.8,177.7 C105,177.9 105.3,177.7 105.5,177.7 C107.2,176.7 108.6,176.5 109.8,176.5 C112.2,176.5 114.6,176.7 116.5,177.5 C117.5,178 117.7,178.5 117,178.9 C114.4,182 111.5,184.9 108.6,188 C105.7,191.4 104.5,194.7 104.5,198.1 C104.5,200 105.2,201.7 106.7,202.9 C108.1,204.1 110.3,204.8 112.5,204.8 C120.2,204.8 126.7,202.4 131.5,198.1 C132.7,197.1 133.2,196.4 133.2,196.4 C133.2,196.2 132.4,196.2 131,196.7 L131,196.7 Z" id="Shape"></path>
                    <path d="M241.6,190.7 C241.6,190.7 241.4,190.9 241.4,191.2 C239.7,194.1 238.3,195.8 236.8,195.8 C234.6,195.8 233.7,193.6 233.7,189.8 C233.7,186.7 234.9,181.6 237.3,174.2 C237.8,172.5 238,171.6 238,171.3 C237.8,171.3 237.3,172.3 236.3,173.9 C232.5,180.9 230.8,187.8 230.8,194.3 C230.8,199.6 232.2,202.2 235.4,202.2 C238.5,202.2 240.7,198.6 241.9,191.4 C242.1,191.2 242.1,190.9 241.9,190.7 C241.9,190.5 241.9,190.5 241.6,190.7 L241.6,190.7 Z" id="Shape"></path>
                    <path d="M20.6,60.9 C22,62.1 23,62.8 24,62.8 C24.7,62.8 25,62.6 25.2,62.3 C25.4,61.8 25.7,61.8 26.2,61.8 C27.2,61.8 28.4,64 30.3,68.8 C32.2,73.4 33.2,76.5 32.9,78.2 C33.1,79.2 33.1,79.9 33.6,79.9 C34.1,79.9 34.6,79.2 35.3,78.2 C36,76.5 37,73.6 37.7,69.6 C39.4,60.5 41.1,55.9 43,55.9 C44,55.9 44.9,56.4 45.6,57.3 C46.6,58.3 47,59 47.3,59 C47.8,59 48.3,58.3 48.7,56.8 C49.2,55.8 49.2,54.9 49.2,54.4 C49.2,53.4 48.7,52.5 47.8,51 C46.8,49.6 45.6,48.8 44.4,48.8 C42.2,48.8 40.3,51 38.4,55.3 C36.7,61.5 35.5,66.3 35,69.5 C35,70 34.8,70.2 34.8,70.5 L34.6,70.5 C34.6,70.3 34.6,70 34.4,69.5 C33.7,64.2 32,59.9 29.8,56.8 C27.6,53.4 25.2,52 22.4,52 C22.2,52 21.4,52.7 20.5,54.6 C19.3,56.5 18.8,57.7 18.8,58 C18.7,58.7 19.2,59.7 20.6,60.9 L20.6,60.9 Z" id="Shape"></path>
                    <path d="M100.3,41.9 C103.4,41.9 105.6,38.3 106.8,31.1 C107,30.9 107,30.6 106.8,30.4 C106.8,30.2 106.8,30.2 106.6,30.4 C106.6,30.4 106.4,30.6 106.4,30.9 C104.7,33.8 103.3,35.5 101.8,35.5 C99.6,35.5 98.7,33.3 98.7,29.5 C98.7,26.4 99.9,21.3 102.3,13.9 C102.8,12.2 103,11.3 103,11 C102.8,11 102.3,12 101.3,13.6 C97.5,20.6 95.8,27.5 95.8,34 C95.7,39.3 97.2,41.9 100.3,41.9 L100.3,41.9 Z" id="Shape"></path>
                    <path d="M101,90.1 L101,90.3 C101.2,90.3 102,89.8 103.4,88.9 C106.8,86.5 109.4,83.6 111.6,80.5 C113.5,77.4 114.7,74.5 114.7,71.9 C114.7,68.8 113.3,67.1 110.6,67.1 C107.2,67.1 105.3,69 104.4,73.1 C104.2,74.1 104.2,74.5 104.2,74.5 C104.2,74.7 104.4,74.7 104.4,74.7 C104.6,74.7 104.9,74.5 105.6,74.2 C106.3,73.7 107.3,73.5 108.2,73.5 C109.9,73.5 110.8,74.5 110.8,76.1 C110.8,78.3 107.9,82.1 102.4,88.1 C101.5,89.4 101,89.9 101,90.1 L101,90.1 Z" id="Shape"></path>
                    <path d="M190.3,94 C192.2,90.9 193.4,88 193.4,85.4 C193.4,82.3 192,80.6 189.3,80.6 C185.9,80.6 184,82.5 183.1,86.6 C182.9,87.6 182.9,88 182.9,88 C182.9,88.2 183.1,88.2 183.1,88.2 C183.3,88.2 183.6,88 184.3,87.7 C185,87.2 186,87 186.9,87 C188.6,87 189.5,88 189.5,89.6 C189.5,91.8 186.6,95.6 181.1,101.6 C180.1,102.8 179.7,103.3 179.7,103.5 L179.7,103.7 C179.9,103.7 180.7,103.2 182.1,102.3 C185.5,100 188.1,97.1 190.3,94 L190.3,94 Z" id="Shape"></path>
                    <path d="M198,172.5 C195.8,172.5 193.9,174.7 192,179 C190.3,185.2 189.1,190 188.6,193.2 C188.6,193.7 188.4,193.9 188.4,194.2 L188.2,194.2 C188.2,194 188.2,193.7 188,193.2 C187.3,187.9 185.6,183.6 183.4,180.5 C181.2,177.1 178.8,175.7 176,175.7 C175.8,175.7 175,176.4 174.1,178.3 C172.9,180.2 172.4,181.4 172.4,181.7 C172.4,182.4 172.9,183.4 174.3,184.6 C175.7,185.8 176.7,186.5 177.7,186.5 C178.4,186.5 178.7,186.3 178.9,186 C179.1,185.5 179.4,185.5 179.9,185.5 C180.9,185.5 182.1,187.7 184,192.5 C185.9,197.1 186.9,200.2 186.6,201.9 C186.8,202.9 186.8,203.6 187.3,203.6 C187.8,203.6 188.3,202.9 189,201.9 C189.7,200.2 190.7,197.3 191.4,193.3 C193.1,184.2 194.8,179.6 196.7,179.6 C197.7,179.6 198.6,180.1 199.3,181 C200.3,182 200.7,182.7 201,182.7 C201.5,182.7 202,182 202.4,180.5 C202.9,179.5 202.9,178.6 202.9,178.1 C202.9,177.1 202.4,176.2 201.5,174.7 C200.4,173.2 199.2,172.5 198,172.5 L198,172.5 Z" id="Shape"></path>
                    <path d="M552.2,108.9 C551.5,107.9 551,107.7 550.5,107.7 C550,107.7 549.5,108.4 549.3,109.9 C547.9,114.5 546.9,117.8 546.7,119.7 C548.9,123.3 549.8,125.2 549.8,125.5 C548.8,127.2 546.7,128.1 543.3,128.1 C540.7,128.1 538.3,127.1 536.6,125.7 C534.7,124.3 533.7,122.6 533.7,120.9 C533.7,121.4 534.4,119.5 535.4,115.4 C535.9,113.2 535.6,112.3 534.7,112.3 C534,112.3 533.3,112.8 532.3,113.7 C529.9,117.5 527.3,121.4 524.9,125.5 C521.1,130.5 516,133.2 510,133.2 C502.6,133.2 498.7,130.3 498.7,125 C498.7,123.8 498.9,122.4 499.4,120.4 C499.9,118.5 500.1,117 500.1,116.3 C500.1,115.3 499.9,114.9 499.4,114.9 C498.7,114.9 497.7,115.4 496.5,116.3 C492.7,119.7 488.8,122.5 485,124.5 C483.8,125.2 479.7,127.1 473.5,130.3 L473.5,130 C472.5,130.5 472.1,130.5 471.8,130.5 C469.4,125.5 466.5,121.4 463.4,117.8 C459.8,114.2 456.7,112.3 453.6,112.3 C449.5,112.3 445.7,114.5 442.1,118.5 C438.3,123.3 436.6,128.6 436.6,134.6 C436.6,142.5 442.4,146.6 453.9,146.6 C459.2,146.6 463.5,145.9 466.4,144.9 C466.9,146.6 467.4,148.3 467.4,149.7 C467.4,151.9 463.8,156.2 457.1,162.9 C449.4,170.1 441.5,176.1 433.3,181.1 C423,187.3 414.3,190.5 407.1,190.5 C398.7,190.5 392.7,187.9 388.9,182.8 C387.4,180.5 386.3,177.9 385.8,175.1 C397.9,167.7 406.8,160.7 412.4,154.3 C414.3,152.1 415.8,149 417,144.9 C418,141.3 418.4,138.4 418.4,136 C418.4,131 417,125.4 414.3,118.7 C412.6,114.9 410.7,110.8 409,106.7 C411.9,107.4 413.8,107.9 414.5,107.9 C415,107.9 415.2,107.7 415.2,107.4 C415.2,106.9 414.5,106 412.8,104.3 C408.7,100.2 405.1,96.4 401.8,92.5 C401.3,92 401.1,91.8 400.8,91.8 C400.3,91.8 400.1,92.3 399.8,93.5 C399.3,94.7 399.1,96.9 398.6,100 C398.1,103.4 398.1,105 398.1,105.5 C398.3,106 398.8,106.7 399.5,108.1 C400.5,109.3 401.2,111 401.7,113.1 C402.9,117.2 405.3,122.9 408.4,129.9 C411.3,136.1 412.7,139.5 412.7,140 C412.7,141.9 409.8,145 404.3,149.4 C399.5,152.9 393.4,157 385.9,161.4 C386.6,157 387.9,151.9 389.7,145.8 C389.9,144.4 390.2,143.2 390.2,142.4 C390.2,141.9 390.2,141.7 390,141.7 C389.5,141.7 389,142.7 387.8,145.1 C385.5,151.3 383.8,157.4 382.7,163.3 C379.4,165.2 375.8,167.2 371.9,169.3 C362.5,174.3 350.8,179.9 336.6,185.9 C316.2,194.5 305.2,199.3 303.2,200.3 C297.9,202.7 295.3,204.1 295.3,204.4 C295.3,204.6 295.3,204.6 295.8,204.6 C296.8,204.6 299.2,204.4 303,203.6 C306.6,203.1 315.7,201 330.1,197.6 C343.8,194.2 351,192.6 351.5,192.6 C354.1,192.6 362.5,188.5 376.9,180.1 C378.5,179.2 380,178.3 381.5,177.4 C381.7,184.8 383.6,191.1 387.2,195.9 C391.5,201.9 397.8,205 405.9,205 C415.5,205 426.5,200 439.5,190.4 C448.1,183.9 456.1,176.5 463.3,167.8 C466.4,164.2 469.1,159.6 470.7,154.1 C472.1,149.8 472.9,146.4 472.9,143.5 L473.4,143 L473.4,143.2 C481.8,139.4 488.3,135.3 492.1,130.7 C492.1,141.7 496.9,147.5 507,147.5 C515.4,147.5 522.4,142.7 527.6,133.1 C530.7,138.9 534.3,142 538.2,142 C544,142 548.3,139.4 551.2,134.1 C553.8,129.8 555.3,124.7 555.3,118.7 C555.3,115.1 554.1,111.8 552.2,108.9 L552.2,108.9 Z M452.6,133.1 C446.8,133.1 444,131.7 444,128.8 C444,126.4 445.9,125.4 450.2,125.4 C453.1,125.4 456.2,127.6 459.8,132.1 C457.2,132.6 454.8,133.1 452.6,133.1 L452.6,133.1 Z" id="Shape"></path>
                    <path d="M361.2,108.1 C357.1,105.2 353.3,101.6 349.4,96.8 C348.4,95.6 348,95.1 348,94.9 C348,94.7 349.7,94.4 352.8,94.4 C354.5,94.4 355.2,94.2 355.2,93.9 L355.2,93.7 C355.2,93.7 354.7,93 353.5,92.3 C351.6,90.6 348.5,88.7 344.6,86.1 C340.5,83.5 338.4,82.3 337.6,82.3 C337.4,82.3 336.9,83.5 336.2,86.4 C335.7,89.3 335.5,91.7 335.5,93.8 C335.5,95.2 336,96.4 336.9,97.4 C338.8,99.3 340,100.5 340.5,101.2 C345.5,108.4 350.1,114.2 354.4,118.2 C349.4,126.1 346.2,132.1 344.3,136.7 C342.4,142 341.4,147.7 341.4,153.5 C341.4,162.1 344.3,166.5 350,166.5 C353.6,166.5 357.9,164.8 363,161.5 C367.8,158.6 370.9,155.7 372.8,152.9 C373.8,151.5 374.7,149.3 375.4,146.4 C376.4,143.3 376.8,140.9 376.8,139 C376.8,134.4 376.1,130.4 375.1,127.2 C373.4,122.9 370.1,117.8 365.3,112.3 C370.1,105.1 373.7,99.6 376.1,95.5 C379.9,89 381.9,83.7 381.9,79.9 C381.9,76.5 381.7,75.1 381.4,75.1 C380.9,75.1 380.2,76.3 379,79.2 C377.8,82.1 375.2,86.9 370.6,93.8 C365.5,101.9 362.1,106.7 361.2,108.1 L361.2,108.1 Z M372.7,138.9 C372.9,139.6 372.5,140.6 371,142 C367.6,145.4 363.6,148 359.2,149.9 C356.1,151.1 353.7,151.8 351.8,151.8 C347.5,151.8 345.6,150.4 345.6,147.5 C345.6,145.3 347.3,141.3 351.1,134.8 C354.5,129 357.1,125 359.3,122.8 C365.5,128.1 370,133.6 372.7,138.9 L372.7,138.9 Z" id="Shape"></path>
                    <path d="M354.7,72.6 C356.1,70.4 357.3,67.8 358.8,64.9 C362.9,67.5 366.5,69.9 369.6,72.3 C370.1,72.5 370.6,72.5 371,71.8 C374.1,66.5 375.8,62.9 375.8,61.2 C375.8,60.7 373.9,59.3 370.3,56.9 C366.5,54.3 364.5,53.1 364.1,53.1 C363.6,53.1 363.4,53.3 363.1,53.8 L359.3,61.7 C358.3,60.7 356.2,59.1 353.1,57.1 C350,54.9 348.3,53.7 347.8,53.7 C347.6,53.7 347.1,54.2 346.8,54.7 L342.2,64.3 C342,64.8 342,65 342.2,65.3 C346,67.7 349.9,70.3 353.5,73.2 C354,73.6 354.4,73.4 354.7,72.6 L354.7,72.6 Z" id="Shape"></path>
                    <path d="M542.4,159.3 C542.2,159.1 541.7,159.8 540.7,161.5 C540,162.5 539.7,163.2 540,163.7 C540.5,165.4 540.7,166.3 540.7,166.3 C540.7,166.5 540.5,166.5 540,166.5 C536.4,166.5 534.5,166.3 535,165.5 C535.5,164.1 535.7,162.9 535.7,162.4 C535.7,161.9 535.7,161.7 535.5,161.7 C535,161.7 534.3,162.2 533.8,163.1 C532.8,164.5 531.9,165.7 531.2,167.2 C530,168.6 528.6,169.4 526.6,169.4 C525.6,169.4 524.4,169.2 523.2,168.7 C521.8,168.2 520.6,168 519.8,168 C516.2,168 512.8,169.2 509.2,171.8 C506.3,173.7 503.7,176.4 501.3,179.2 C497.7,183.5 494.8,186.6 492.9,188.6 C488.8,191.7 485.9,193.6 484,194.8 C482.1,196 481.1,196.7 481.1,196.7 L481.1,196.9 C481.6,196.9 483,196.4 485.7,195.7 C488.1,195 490.3,193.8 492.4,192.1 C496,188.5 499.6,184.9 503.2,181.3 C508.2,176.5 513.3,174.3 518.1,174.3 C518.8,174.3 519.8,174.5 521,175 C522.2,175.5 523.4,175.7 524.1,175.7 C527,175.7 529.9,174 532.7,171.1 C536.3,172.8 538.9,173 540.6,172.1 C541.1,171.6 541.8,170.4 542.5,168.3 C543.2,166.4 543.7,164.7 543.7,163 C543.7,161.3 543.3,160 542.4,159.3 L542.4,159.3 Z" id="Shape"></path>
                    <path d="M445.6,94 C446.1,94 446.6,93.3 447.3,92.3 C448,90.6 449,87.7 449.7,83.7 C451.4,74.6 453.1,70 455,70 C456,70 456.9,70.5 457.6,71.4 C458.6,72.4 459,73.1 459.3,73.1 C459.8,73.1 460.3,72.4 460.7,70.9 C461.2,69.9 461.2,69 461.2,68.5 C461.2,67.5 460.7,66.6 459.8,65.1 C458.8,63.7 457.6,62.9 456.4,62.9 C454.2,62.9 452.3,65.1 450.4,69.4 C448.7,75.6 447.5,80.4 447,83.6 C447,84.1 446.8,84.3 446.8,84.6 L446.6,84.6 C446.6,84.4 446.6,84.1 446.4,83.6 C445.7,78.3 444,74 441.8,70.9 C439.6,67.5 437.2,66.1 434.4,66.1 C434.2,66.1 433.4,66.8 432.5,68.7 C431.3,70.6 430.8,71.8 430.8,72.1 C430.8,72.8 431.3,73.8 432.7,75 C434.1,76.2 435.1,76.9 436.1,76.9 C436.8,76.9 437.1,76.7 437.3,76.4 C437.5,75.9 437.8,75.9 438.3,75.9 C439.3,75.9 440.5,78.1 442.4,82.9 C444.3,87.5 445.3,90.6 445,92.3 C445.2,93.3 445.2,94 445.6,94 L445.6,94 Z" id="Shape"></path>
                    <path d="M468,40 C468.5,39.5 469.2,38.3 470.2,36.2 C470.4,35.5 470.4,35 470.2,35 C470.2,34.8 469.7,35 469,35.2 C443.1,44.8 417.9,53.9 393.6,63 C392.4,65.4 391.7,67.6 391.2,69.7 C393.8,68 407.5,62.5 431.8,53.6 C455.5,44.8 467.7,40.2 468,40 L468,40 Z" id="Shape"></path>
                    <path d="M332.6,49.4 C332.8,49.4 333.8,49.2 335,48.7 C342.7,45.8 347,44.1 348,43.7 C351.6,42.3 355.7,39.6 360.2,36.5 C364,33.6 367.2,30.5 369.8,26.9 C372,28.1 373.4,29.3 373.9,30.3 C376.1,27.4 377,25.3 377,24.1 C376.5,23.1 375.1,21.9 372.7,20.7 C373.9,17.3 374.4,14.5 374.4,11.8 C374.4,8.9 373.7,7.2 372,6.8 C370.1,6.1 367.7,7 364.8,9.7 C361.9,12.1 360.5,15 360.5,18.1 C360.5,20.7 362.7,23.1 367.2,25.5 C363.8,29.1 358.8,32.9 351.8,37.3 C345.8,40.7 340,44 334.3,47.6 C332.9,48.3 332.4,49 332.4,49.3 C332.4,49.1 332.4,49.4 332.6,49.4 L332.6,49.4 Z M364.5,14.8 C364.5,14.3 365,13.8 365.9,13.4 C366.9,12.9 367.6,12.7 368.1,12.7 C369.3,12.7 370,13.4 370.3,14.9 C370.5,16.3 370.5,17.8 370.1,19.2 C366.4,17.4 364.5,16 364.5,14.8 L364.5,14.8 Z" id="Shape"></path>
                    <path d="M471.1,90.9 C471.6,90.9 472.3,90.7 473.5,90.2 C474.7,89.5 480,87.6 488.9,84 C493.7,82.1 498.3,79.7 502.8,77 C509.5,72.9 514.8,68.1 518.6,63.1 C520.8,64.3 521.7,65.3 521.7,65.7 C521.7,65.9 521,68.1 519.5,72.4 C518.1,76.7 517.6,80.1 517.6,82.7 C517.6,88 519,90.6 522.2,90.6 C525.1,90.6 527.2,87 528.7,79.8 L528.7,79.1 C528.7,78.9 528.5,78.9 528.5,78.9 C528.3,79.1 528.3,79.4 528,79.6 C526.3,82.5 524.9,84.2 523.7,84.2 C521.5,84.2 520.6,82 520.6,78 C520.6,74.6 521.8,70.1 524.2,64.3 C524.7,62.9 524.9,61.7 524.9,60.9 C524.9,59.5 523.9,58 521.5,56.6 C522.7,53.5 523.2,50.6 523.2,48 C523.2,45.1 522.2,43.4 520.8,43 C518.9,42.3 516.5,43.2 513.6,45.6 C510.7,48.2 509.3,51.1 509.3,54.2 C509.3,56.8 511.5,59.2 516,61.6 C512.6,65.2 505.7,70 495.6,75.8 C487.9,80.1 480.5,84.4 472.8,88.8 C471.4,89.8 470.9,90.2 470.9,90.7 C470.8,90.6 470.8,90.9 471.1,90.9 L471.1,90.9 Z M513.3,51 C513.3,50.5 513.8,50 514.7,49.6 C515.7,49.1 516.4,48.9 516.9,48.9 C518.1,48.9 518.8,49.6 519.1,51.1 C519.3,52.5 519.3,54 518.9,55.4 C515.2,53.7 513.3,52.2 513.3,51 L513.3,51 Z" id="Shape"></path>
                    <path d="M405.8,43.6 C408.9,43.6 411.1,40 412.3,32.8 C412.5,32.6 412.5,32.3 412.3,32.1 C412.3,31.9 412.3,31.9 412.1,32.1 C412.1,32.1 411.9,32.3 411.9,32.6 C410.2,35.5 408.8,37.2 407.3,37.2 C405.1,37.2 404.2,35 404.2,31.2 C404.2,28.1 405.4,23 407.8,15.6 C408.3,13.9 408.5,13 408.5,12.7 C408.3,12.7 407.8,13.7 406.8,15.3 C403,22.3 401.3,29.2 401.3,35.7 C401.2,40.9 402.7,43.6 405.8,43.6 L405.8,43.6 Z" id="Shape"></path>
                    <path d="M271.2,52.9 C271.7,52.2 271.7,51.7 271.4,51.7 C271.2,51.5 270.9,51.7 270,51.9 C254.9,57.4 240.5,62.7 226.8,67.5 C225.6,69.9 224.9,72.1 224.4,74.2 C241.4,67 256.3,61.2 269.3,56.7 C269.7,56.3 270.4,55.1 271.2,52.9 L271.2,52.9 Z" id="Shape"></path>
                </g>
            </g>
        </g>
    </g>
</svg>