<?xml version="1.0" encoding="utf-8"?>
<!-- Generator: Adobe Illustrator 14.0.0, SVG Export Plug-In . SVG Version: 6.00 Build 43363)  -->
<!DOCTYPE svg PUBLIC "-//W3C//DTD SVG 1.1//EN" "http://www.w3.org/Graphics/SVG/1.1/DTD/svg11.dtd">
<svg version="1.1" id="Layer_1" xmlns="http://www.w3.org/2000/svg" xmlns:xlink="http://www.w3.org/1999/xlink" x="0px" y="0px"
	 width="360px" height="360px" viewBox="0 0 360 360" enable-background="new 0 0 360 360" xml:space="preserve">
<g>
	<path fill-rule="evenodd" clip-rule="evenodd" d="M359,148c-12.497,17.915-27.74,33.298-42,49
		c-35.593,39.192-72.737,77.079-110,118c-5.361,5.888-17.679,20.62-24,21c-8.319,0.5-18.579-14.043-25-21
		c-36.703-39.77-74.734-78.067-111-118c-14.349-15.8-29.579-31.148-42-49c26.014-27.653,53.358-53.975,81-80c47.984,0,94.05,0,143,0
		c15.058,0,33.942-3.146,47,0c7.405,1.784,14.603,12.062,22,19C320.035,107.666,338.378,126.334,359,148z M111,134
		c13.756-10.583,26.321-27.479,38-40c3.897-4.177,10.854-7.944,10-13c-20.001,0.666-42.665-1.332-61,1
		C103.024,98.643,106.775,116.558,111,134z M181,81c-0.415-0.323-1.526,0.248-2,0c-14.122,18.202-34.289,37.067-49,54
		c-1.57,1.807-5.841,4.471-4,7c37,0,74,0,111,0C220.828,125.552,201.278,96.773,181,81z M251,133c3.498-17.835,8.677-33.99,12-52
		c-20.335,0.666-43.332-1.332-62,1C218.173,97.839,233.435,120.883,251,133z M263,142c23.333,0,46.667,0,70,0
		c-15.308-18.693-37.755-38.911-57-57C272.477,104.81,266.294,121.96,263,142z M42,129c-4.358,4.358-10.756,9.612-10,13
		c22.333,0,44.667,0,67,0c-4.694-18.306-8.152-37.848-14-55C71.923,100.521,55.203,115.797,42,129z M166,302
		c-21.037-48.297-41.906-96.761-62-146c-24.667,0-49.333,0-74,0C71.519,203.816,121.36,257.306,166,302z M181,302
		c20.647-48.353,42.239-95.761,61-146c-40.666,0-81.333,0-122,0C138.32,206.68,159.957,254.043,181,302z M194,309
		c43.369-47.048,89.505-97.869,133-144c2.26-2.397,7.887-4.546,6-9c-25,0-50,0-75,0C237.392,207.059,212.716,259.383,194,309z"/>
</g>
</svg>
